<?xml version="1.0" encoding="utf-8" ?>
<svg baseProfile="full" height="1189" version="1.1" width="1411.5" xmlns="http://www.w3.org/2000/svg" xmlns:ev="http://www.w3.org/2001/xml-events" xmlns:xlink="http://www.w3.org/1999/xlink"><defs /><rect fill="none" height="1188" stroke="red" width="1410.5" x="0" y="0" /><text fill="red" id="pos_test" x="1270" y="20">0,0</text><rect fill="black" height="329" id="wall_1" stroke="black" style="cursor:crosshair" width="36.5" x="25" y="0" /><rect fill="black" height="36.5" id="wall_2" stroke="black" style="cursor:crosshair" width="587.5" x="61.5" y="0" /><rect fill="black" height="24" id="wall_3" stroke="black" style="cursor:crosshair" width="287.5" x="649" y="0" /><rect fill="black" height="324" id="wall_4" stroke="black" style="cursor:crosshair" width="24" x="912.5" y="0" /><rect fill="black" height="36.5" id="wall_5" stroke="black" style="cursor:crosshair" width="475" x="936.5" y="36.5" /><rect fill="black" height="951" id="wall_6" stroke="black" style="cursor:crosshair" width="36.5" x="1375" y="73" /><rect fill="black" height="165" id="wall_7" stroke="black" style="cursor:crosshair" width="24.0" x="1387.5" y="1024" /><rect fill="black" height="756.5" id="wall_8" stroke="black" style="cursor:crosshair" width="36.5" x="0" y="292.5" /><rect fill="black" height="24" id="wall_9" stroke="black" style="cursor:crosshair" width="936.5" x="0" y="1025" /><rect fill="black" height="24" id="wall_10" stroke="black" style="cursor:crosshair" width="511.5" x="0" y="575" /><rect fill="black" height="599" id="wall_11" stroke="black" style="cursor:crosshair" width="11.5" x="500" y="0" /><rect fill="black" height="11.5" id="wall_12" stroke="black" style="cursor:crosshair" width="486.5" x="25" y="223.5" /><rect fill="black" height="324" id="wall_13" stroke="black" style="cursor:crosshair" width="11.5" x="637.5" y="0" /><rect fill="black" height="11.5" id="wall_14" stroke="black" style="cursor:crosshair" width="149" x="500" y="312.5" /><rect fill="black" height="624" id="wall_15" stroke="black" style="cursor:crosshair" width="24" x="912.5" y="554" /><rect fill="black" height="24" id="wall_16" stroke="black" style="cursor:crosshair" width="499" x="912.5" y="1001" /><rect fill="blue" height="5" stroke="blue" style="cursor:crosshair" width="5" x="934.28" y="105.54" /><rect fill="blue" height="5" stroke="blue" style="cursor:crosshair" width="5" x="1374.91" y="96.19" /><rect fill="blue" height="5" stroke="blue" style="cursor:crosshair" width="5" x="1165.26" y="518.43" /><rect fill="blue" height="5" stroke="blue" style="cursor:crosshair" width="5" x="1165.26" y="764.43" /></svg>